HIERARCHY
ROOT Root
{
	OFFSET 0.00000 0.00000 0.00000
	CHANNELS 6 Xposition Yposition Zposition Zrotation Xrotation Yrotation
	JOINT Hips
	{
		OFFSET 0 0 0	
		CHANNELS 3 Zrotation Xrotation Yrotation
		JOINT Spine
		{
			OFFSET 0 4 0	
			CHANNELS 3 Zrotation Xrotation Yrotation
			JOINT Spine1
			{
				OFFSET 0 19.4 0	
				CHANNELS 3 Zrotation Xrotation Yrotation
				JOINT Spine2
				{
					OFFSET 0 16.6 0	
					CHANNELS 3 Zrotation Xrotation Yrotation
					JOINT LeftCollar
					{
						OFFSET 0 10 0	
						CHANNELS 3 Zrotation Xrotation Yrotation
						JOINT LeftArm
						{
							OFFSET 15.6 -2 3	
							CHANNELS 3 Zrotation Xrotation Yrotation
							JOINT LeftForeArm
							{
								OFFSET 3.5 -27 -1	
								CHANNELS 3 Zrotation Xrotation Yrotation
								JOINT LeftHand
								{
									OFFSET 1 -27 1	
									CHANNELS 3 Zrotation Xrotation Yrotation
									End Site
									{
										OFFSET 0 -15 0
									}
								}
							}
						}
					}
					JOINT RightCollar
					{
						OFFSET 0 10 0	
						CHANNELS 3 Zrotation Xrotation Yrotation
						JOINT RightArm
						{
							OFFSET -15.6 -2 3	
							CHANNELS 3 Zrotation Xrotation Yrotation
							JOINT RightForeArm
							{
								OFFSET -3.5 -27 -1	
								CHANNELS 3 Zrotation Xrotation Yrotation
								JOINT RightHand
								{
									OFFSET -1 -27 1	
									CHANNELS 3 Zrotation Xrotation Yrotation
									End Site
									{
										OFFSET 0 -15 0
									}
								}
							}
						}
					}
					JOINT Neck
					{
						OFFSET 0 10 0	
						CHANNELS 3 Zrotation Xrotation Yrotation
						JOINT Head
						{
							OFFSET 0 12.7 3	
							CHANNELS 3 Zrotation Xrotation Yrotation
							End Site
							{
								OFFSET 0 12.7 3
							}
						}
					}
				}
			}
		}
	}
	JOINT LeftHip
	{
		OFFSET 0 0 0	
		CHANNELS 3 Zrotation Xrotation Yrotation
		JOINT LeftUpLeg
		{
			OFFSET 8.8 -6 0	
			CHANNELS 3 Zrotation Xrotation Yrotation
			JOINT LeftLeg
			{
				OFFSET 0 -39 2	
				CHANNELS 3 Zrotation Xrotation Yrotation
				JOINT LeftFoot
				{
					OFFSET 0 -43 -2	
					CHANNELS 3 Zrotation Xrotation Yrotation
					JOINT LeftFootFront
					{
						OFFSET 0 -7 8.5	
						CHANNELS 3 Zrotation Xrotation Yrotation
						End Site
						{
							OFFSET 0 -0.5 9
						}
					}
				}
				JOINT LeftHeel
				{
					OFFSET 0 -43 -2	
					CHANNELS 3 Zrotation Xrotation Yrotation
					End Site
					{
						OFFSET 0 -7.5 -5
					}
				}
			}
		}
	}
	JOINT RightHip
	{
		OFFSET 0 0 0	
		CHANNELS 3 Zrotation Xrotation Yrotation
		JOINT RightUpLeg
		{
			OFFSET -8.8 -6 0	
			CHANNELS 3 Zrotation Xrotation Yrotation
			JOINT RightLeg
			{
				OFFSET 0 -39 2	
				CHANNELS 3 Zrotation Xrotation Yrotation
				JOINT RightFoot
				{
					OFFSET 0 -43 -2	
					CHANNELS 3 Zrotation Xrotation Yrotation
					JOINT RightFootFront
					{
						OFFSET 0 -7 8.5	
						CHANNELS 3 Zrotation Xrotation Yrotation
						End Site
						{
							OFFSET 0 -0.5 9
						}
					}
				}
				JOINT RightHeel
				{
					OFFSET 0 -43 -2	
					CHANNELS 3 Zrotation Xrotation Yrotation
					End Site
					{
						OFFSET 0 -7.5 -5
					}
				}
			}
		}
	}
}
MOTION
Frames: 36
Frame Time: 0.05
0 95.5 0 -0 0 -0 -0 0 -0 -0 0 -0 -1.8878 27.865 0.13605 -0 0 -0 -0 0 -0 -11.914 -62.451 -31.813 -81.585 -36.377 -82.415 -0 0 -0 -0 0 -0 72.781 -85.685 121.72 -28.569 -16.628 -61.164 -0 0 -0 -4.53 -27.156 1.3154 -4.53 -27.156 1.3154 -0 0 -0 -0 0 -0 -0 0 -0 -0 0 -0 -0 0 -0 -0 0 -0 -0 0 -0 -0 0 -0 -0 0 -0 -0 0 -0 -0 0 -0 -0 0 -0 
0 95.5 0 -0 0 -0 -0 0 -0 -0 0 -0 -1.6141 27.533 -0.44448 -0 0 -0 -0 0 -0 -11.084 -62.353 -30.597 -81.261 -36.238 -81.815 -0 0 -0 -0 0 -0 54.335 -86.047 101.75 -28.821 -18.381 -60.979 -0 0 -0 -4.3188 -27.033 1.2299 -4.3188 -27.033 1.2299 -0 0 -0 -0 0 -0 -0 0 -0 -0 0 -0 -0 0 -0 -0 0 -0 -0 0 -0 -0 0 -0 -0 0 -0 -0 0 -0 -0 0 -0 -0 0 -0 
0 95.5 0 -0 0 -0 -0 0 -0 -0 0 -0 -1.0539 27.027 -1.2906 -0 0 -0 -0 0 -0 -10.225 -62.089 -29.216 -80.977 -36.083 -81.444 -0 0 -0 -0 0 -0 28.076 -85.415 73.801 -29.086 -21.481 -61.042 -0 0 -0 -4.0892 -27.034 1.3586 -4.0892 -27.034 1.3586 -0 0 -0 -0 0 -0 -0 0 -0 -0 0 -0 -0 0 -0 -0 0 -0 -0 0 -0 -0 0 -0 -0 0 -0 -0 0 -0 -0 0 -0 -0 0 -0 
0 95.5 0 -0 0 -0 -0 0 -0 -0 0 -0 -0.25882 26.25 -2.4094 -0 0 -0 -0 0 -0 -9.2449 -61.602 -27.553 -80.794 -36.077 -81.301 -0 0 -0 -0 0 -0 9.2197 -83.451 52.988 -29.208 -25.828 -61.055 -0 0 -0 -3.8418 -26.972 1.6634 -3.8418 -26.972 1.6634 -0 0 -0 -0 0 -0 -0 0 -0 -0 0 -0 -0 0 -0 -0 0 -0 -0 0 -0 -0 0 -0 -0 0 -0 -0 0 -0 -0 0 -0 -0 0 -0 
0 95.5 0 -0 0 -0 -0 0 -0 -0 0 -0 0.63097 25.397 -3.5797 -0 0 -0 -0 0 -0 -8.471 -61.101 -25.986 -80.523 -36.379 -81.039 -0 0 -0 -0 0 -0 -0.90398 -80.787 40.446 -29.184 -31.364 -60.767 -0 0 -0 -3.6368 -26.839 2.0063 -3.6368 -26.839 2.0063 -0 0 -0 -0 0 -0 -0 0 -0 -0 0 -0 -0 0 -0 -0 0 -0 -0 0 -0 -0 0 -0 -0 0 -0 -0 0 -0 -0 0 -0 -0 0 -0 
0 95.5 0 -0 0 -0 -0 0 -0 -0 0 -0 1.2725 24.43 -4.7316 -0 0 -0 -0 0 -0 -7.5373 -60.496 -24.329 -80.24 -36.97 -80.487 -0 0 -0 -0 0 -0 -5.788 -77.577 32.43 -29.285 -37.951 -59.53 -0 0 -0 -3.4066 -26.668 2.3494 -3.4066 -26.668 2.3494 -0 0 -0 -0 0 -0 -0 0 -0 -0 0 -0 -0 0 -0 -0 0 -0 -0 0 -0 -0 0 -0 -0 0 -0 -0 0 -0 -0 0 -0 -0 0 -0 
0 95.5 0 -0 0 -0 -0 0 -0 -0 0 -0 1.6956 23.54 -5.868 -0 0 -0 -0 0 -0 -6.4864 -60.103 -22.654 -79.8 -37.771 -79.745 -0 0 -0 -0 0 -0 -7.2659 -74.427 28.263 -29.652 -44.457 -59.385 -0 0 -0 -3.1233 -26.565 2.7038 -3.1233 -26.565 2.7038 -0 0 -0 -0 0 -0 -0 0 -0 -0 0 -0 -0 0 -0 -0 0 -0 -0 0 -0 -0 0 -0 -0 0 -0 -0 0 -0 -0 0 -0 -0 0 -0 
0 95.5 0 -0 0 -0 -0 0 -0 -0 0 -0 2.0598 22.565 -7.0459 -0 0 -0 -0 0 -0 -5.3542 -59.893 -20.917 -78.784 -38.534 -78.271 -0 0 -0 -0 0 -0 -7.5789 -71.239 25.362 -30.051 -51.112 -59.466 -0 0 -0 -2.7534 -26.357 3.2439 -2.7534 -26.357 3.2439 -0 0 -0 -0 0 -0 -0 0 -0 -0 0 -0 -0 0 -0 -0 0 -0 -0 0 -0 -0 0 -0 -0 0 -0 -0 0 -0 -0 0 -0 -0 0 -0 
0 95.5 0 -0 0 -0 -0 0 -0 -0 0 -0 2.5262 21.227 -8.156 -0 0 -0 -0 0 -0 -4.5534 -59.616 -19.544 -76.962 -39.241 -75.778 -0 0 -0 -0 0 -0 -7.9296 -67.908 22.823 -29.987 -57.57 -60.158 -0 0 -0 -2.4072 -25.864 3.9215 -2.4072 -25.864 3.9215 -0 0 -0 -0 0 -0 -0 0 -0 -0 0 -0 -0 0 -0 -0 0 -0 -0 0 -0 -0 0 -0 -0 0 -0 -0 0 -0 -0 0 -0 -0 0 -0 
0 95.5 0 -0 0 -0 -0 0 -0 -0 0 -0 2.9556 19.842 -8.9645 -0 0 -0 -0 0 -0 -4.3476 -59.302 -19.01 -74.297 -39.928 -72.476 -0 0 -0 -0 0 -0 -8.1811 -64.587 20.428 -29.842 -63.699 -61.092 -0 0 -0 -1.9755 -25.266 4.4234 -1.9755 -25.266 4.4234 -0 0 -0 -0 0 -0 -0 0 -0 -0 0 -0 -0 0 -0 -0 0 -0 -0 0 -0 -0 0 -0 -0 0 -0 -0 0 -0 -0 0 -0 -0 0 -0 
0 95.5 0 -0 0 -0 -0 0 -0 -0 0 -0 2.9778 18.355 -9.5011 -0 0 -0 -0 0 -0 -4.1147 -58.776 -18.786 -71.201 -40.321 -68.632 -0 0 -0 -0 0 -0 -7.3247 -61.384 18.657 -28.634 -69.286 -61 -0 0 -0 -1.3718 -24.578 4.7469 -1.3718 -24.578 4.7469 -0 0 -0 -0 0 -0 -0 0 -0 -0 0 -0 -0 0 -0 -0 0 -0 -0 0 -0 -0 0 -0 -0 0 -0 -0 0 -0 -0 0 -0 -0 0 -0 
0 95.5 0 -0 0 -0 -0 0 -0 -0 0 -0 2.5745 16.925 -9.9663 -0 0 -0 -0 0 -0 -3.5994 -58.271 -18.457 -68.334 -40.418 -65.108 -0 0 -0 -0 0 -0 -5.508 -58.471 17.388 -25.022 -74.51 -59.033 -0 0 -0 -0.72043 -23.818 5.1475 -0.72043 -23.818 5.1475 -0 0 -0 -0 0 -0 -0 0 -0 -0 0 -0 -0 0 -0 -0 0 -0 -0 0 -0 -0 0 -0 -0 0 -0 -0 0 -0 -0 0 -0 -0 0 -0 
0 95.5 0 -0 0 -0 -0 0 -0 -0 0 -0 2.2129 15.162 -10.807 -0 0 -0 -0 0 -0 -2.5034 -57.403 -17.174 -66.2 -40.315 -62.238 -0 0 -0 -0 0 -0 -3.2288 -55.719 17.635 -18.344 -78.824 -53.97 -0 0 -0 -0.12034 -22.981 6.0583 -0.12034 -22.981 6.0583 -0 0 -0 -0 0 -0 -0 0 -0 -0 0 -0 -0 0 -0 -0 0 -0 -0 0 -0 -0 0 -0 -0 0 -0 -0 0 -0 -0 0 -0 -0 0 -0 
0 95.5 0 -0 0 -0 -0 0 -0 -0 0 -0 2.2246 13.47 -11.819 -0 0 -0 -0 0 -0 -1.4161 -56.621 -15.747 -64.664 -40.37 -59.942 -0 0 -0 -0 0 -0 -1.4391 -53.353 18.53 -8.6894 -82.425 -45.506 -0 0 -0 0.23534 -22.639 7.2465 0.23534 -22.639 7.2465 -0 0 -0 -0 0 -0 -0 0 -0 -0 0 -0 -0 0 -0 -0 0 -0 -0 0 -0 -0 0 -0 -0 0 -0 -0 0 -0 -0 0 -0 -0 0 -0 
0 95.5 0 -0 0 -0 -0 0 -0 -0 0 -0 2.3141 11.7 -12.543 -0 0 -0 -0 0 -0 -1.1189 -55.565 -15.16 -63.618 -40.836 -58.665 -0 0 -0 -0 0 -0 0.13135 -51.228 18.484 21.037 -84.848 -16.954 -0 0 -0 0.27998 -22.652 8.3414 0.27998 -22.652 8.3414 -0 0 -0 -0 0 -0 -0 0 -0 -0 0 -0 -0 0 -0 -0 0 -0 -0 0 -0 -0 0 -0 -0 0 -0 -0 0 -0 -0 0 -0 -0 0 -0 
0 95.5 0 -0 0 -0 -0 0 -0 -0 0 -0 1.6718 9.4454 -12.789 -0 0 -0 -0 0 -0 -0.45592 -53.571 -14.882 -62.393 -41.172 -56.765 -0 0 -0 -0 0 -0 1.5714 -48.507 17.574 68.04 -84.32 28.567 -0 0 -0 0.28803 -22.233 9.2496 0.28803 -22.233 9.2495 -0 0 -0 -0 0 -0 -0 0 -0 -0 0 -0 -0 0 -0 -0 0 -0 -0 0 -0 -0 0 -0 -0 0 -0 -0 0 -0 -0 0 -0 -0 0 -0 
0 95.5 0 -0 0 -0 -0 0 -0 -0 0 -0 1.1493 8.3937 -13.198 -0 0 -0 -0 0 -0 0.55949 -52.731 -14.071 -60.812 -40.941 -54.468 -0 0 -0 -0 0 -0 3.2693 -47.723 18.491 89.147 -82.559 47.413 -0 0 -0 0.33564 -21.924 10.041 0.33564 -21.924 10.041 -0 0 -0 -0 0 -0 -0 0 -0 -0 0 -0 -0 0 -0 -0 0 -0 -0 0 -0 -0 0 -0 -0 0 -0 -0 0 -0 -0 0 -0 -0 0 -0 
0 95.5 0 -0 0 -0 -0 0 -0 -0 0 -0 1.326 8.4069 -13.802 -0 0 -0 -0 0 -0 1.0894 -53.379 -13.191 -58.974 -40.392 -52.011 -0 0 -0 -0 0 -0 4.9895 -48.667 21.517 100.31 -81.524 57.073 -0 0 -0 0.38108 -22.142 10.68 0.38108 -22.142 10.68 -0 0 -0 -0 0 -0 -0 0 -0 -0 0 -0 -0 0 -0 -0 0 -0 -0 0 -0 -0 0 -0 -0 0 -0 -0 0 -0 -0 0 -0 -0 0 -0 
0 95.5 0 -0 0 -0 -0 0 -0 -0 0 -0 1.2152 7.7989 -14.084 -0 0 -0 -0 0 -0 1.199 -53.321 -13.07 -57.529 -40.11 -49.977 -0 0 -0 -0 0 -0 6.7632 -49.627 25.449 106.44 -81.252 61.882 -0 0 -0 0.56082 -22.442 11.074 0.56082 -22.442 11.074 -0 0 -0 -0 0 -0 -0 0 -0 -0 0 -0 -0 0 -0 -0 0 -0 -0 0 -0 -0 0 -0 -0 0 -0 -0 0 -0 -0 0 -0 -0 0 -0 
0 95.5 0 -0 0 -0 -0 0 -0 -0 0 -0 0.94083 7.4133 -14.249 -0 0 -0 -0 0 -0 1.3966 -53.153 -13.195 -56.514 -40.115 -48.384 -0 0 -0 -0 0 -0 9.0407 -50.947 30.22 113.53 -81.639 69.498 -0 0 -0 0.84527 -22.714 11.331 0.84527 -22.714 11.331 -0 0 -0 -0 0 -0 -0 0 -0 -0 0 -0 -0 0 -0 -0 0 -0 -0 0 -0 -0 0 -0 -0 0 -0 -0 0 -0 -0 0 -0 -0 0 -0 
0 95.5 0 -0 0 -0 -0 0 -0 -0 0 -0 1.1302 8.5926 -14.466 -0 0 -0 -0 0 -0 1.5473 -54.609 -13.133 -55.509 -40.036 -47.249 -0 0 -0 -0 0 -0 11.726 -53.592 35.05 120.96 -81.705 78.293 -0 0 -0 1.1328 -23.012 11.383 1.1328 -23.012 11.383 -0 0 -0 -0 0 -0 -0 0 -0 -0 0 -0 -0 0 -0 -0 0 -0 -0 0 -0 -0 0 -0 -0 0 -0 -0 0 -0 -0 0 -0 -0 0 -0 
0 95.5 0 -0 0 -0 -0 0 -0 -0 0 -0 1.2483 9.4719 -14.775 -0 0 -0 -0 0 -0 1.6282 -56 -12.678 -54.636 -39.539 -46.325 -0 0 -0 -0 0 -0 14.547 -55.486 39.525 126.9 -81.407 85.741 -0 0 -0 1.5422 -22.795 11.253 1.5422 -22.795 11.253 -0 0 -0 -0 0 -0 -0 0 -0 -0 0 -0 -0 0 -0 -0 0 -0 -0 0 -0 -0 0 -0 -0 0 -0 -0 0 -0 -0 0 -0 -0 0 -0 
0 95.5 0 -0 0 -0 -0 0 -0 -0 0 -0 0.8278 9.3225 -14.513 -0 0 -0 -0 0 -0 1.2196 -56.124 -13.172 -54.014 -39.127 -45.507 -0 0 -0 -0 0 -0 16.189 -55.708 41.948 133.47 -81.077 93.56 -0 0 -0 1.9167 -22.338 10.776 1.9167 -22.338 10.776 -0 0 -0 -0 0 -0 -0 0 -0 -0 0 -0 -0 0 -0 -0 0 -0 -0 0 -0 -0 0 -0 -0 0 -0 -0 0 -0 -0 0 -0 -0 0 -0 
0 95.5 0 -0 0 -0 -0 0 -0 -0 0 -0 0.74513 9.6117 -14.067 -0 0 -0 -0 0 -0 0.46009 -56.461 -14.168 -53.437 -38.868 -44.807 -0 0 -0 -0 0 -0 17.056 -56.28 42.993 135.93 -80.797 96.706 -0 0 -0 1.9639 -22.422 10.174 1.9639 -22.422 10.174 -0 0 -0 -0 0 -0 -0 0 -0 -0 0 -0 -0 0 -0 -0 0 -0 -0 0 -0 -0 0 -0 -0 0 -0 -0 0 -0 -0 0 -0 -0 0 -0 
0 95.5 0 -0 0 -0 -0 0 -0 -0 0 -0 1.1284 10.038 -13.808 -0 0 -0 -0 0 -0 -0.64902 -56.992 -15.005 -52.879 -38.545 -44.354 -0 0 -0 -0 0 -0 17.232 -56.741 43.244 138.25 -80.324 99.875 -0 0 -0 1.7574 -22.77 9.6226 1.7574 -22.77 9.6226 -0 0 -0 -0 0 -0 -0 0 -0 -0 0 -0 -0 0 -0 -0 0 -0 -0 0 -0 -0 0 -0 -0 0 -0 -0 0 -0 -0 0 -0 -0 0 -0 
0 95.5 0 -0 0 -0 -0 0 -0 -0 0 -0 1.0187 9.9994 -13.172 -0 0 -0 -0 0 -0 -1.8544 -56.903 -16.417 -52.602 -38.356 -44.055 -0 0 -0 -0 0 -0 16.634 -56.501 42.042 140.74 -79.82 102.94 -0 0 -0 1.6588 -22.961 8.9456 1.6588 -22.961 8.9456 -0 0 -0 -0 0 -0 -0 0 -0 -0 0 -0 -0 0 -0 -0 0 -0 -0 0 -0 -0 0 -0 -0 0 -0 -0 0 -0 -0 0 -0 -0 0 -0 
0 95.5 0 -0 0 -0 -0 0 -0 -0 0 -0 0.81683 9.8814 -12.571 -0 0 -0 -0 0 -0 -2.6798 -56.572 -17.673 -52.619 -38.472 -44.169 -0 0 -0 -0 0 -0 15.509 -56.002 40.266 141.88 -79.451 104.42 -0 0 -0 1.5863 -23.023 8.4236 1.5863 -23.023 8.4236 -0 0 -0 -0 0 -0 -0 0 -0 -0 0 -0 -0 0 -0 -0 0 -0 -0 0 -0 -0 0 -0 -0 0 -0 -0 0 -0 -0 0 -0 -0 0 -0 
0 95.5 0 -0 0 -0 -0 0 -0 -0 0 -0 0.84786 9.8982 -12.47 -0 0 -0 -0 0 -0 -2.8711 -56.493 -17.91 -52.678 -38.506 -44.481 -0 0 -0 -0 0 -0 14.478 -55.532 38.845 140.29 -79.352 102.93 -0 0 -0 1.5183 -23.084 8.1588 1.5183 -23.084 8.1588 -0 0 -0 -0 0 -0 -0 0 -0 -0 0 -0 -0 0 -0 -0 0 -0 -0 0 -0 -0 0 -0 -0 0 -0 -0 0 -0 -0 0 -0 -0 0 -0 
0 95.5 0 -0 0 -0 -0 0 -0 -0 0 -0 1.0859 9.9993 -12.637 -0 0 -0 -0 0 -0 -2.7699 -56.822 -17.455 -52.804 -38.371 -44.593 -0 0 -0 -0 0 -0 13.48 -55.215 37.568 137.21 -79.587 99.593 -0 0 -0 1.3932 -23.322 7.944 1.3932 -23.322 7.944 -0 0 -0 -0 0 -0 -0 0 -0 -0 0 -0 -0 0 -0 -0 0 -0 -0 0 -0 -0 0 -0 -0 0 -0 -0 0 -0 -0 0 -0 -0 0 -0 
0 95.5 0 -0 0 -0 -0 0 -0 -0 0 -0 1.2902 10.267 -12.818 -0 0 -0 -0 0 -0 -2.5063 -57.381 -16.904 -53.125 -38.305 -44.646 -0 0 -0 -0 0 -0 12.469 -55.031 36.117 134.75 -79.701 97.359 -0 0 -0 1.247 -23.983 7.7505 1.247 -23.983 7.7505 -0 0 -0 -0 0 -0 -0 0 -0 -0 0 -0 -0 0 -0 -0 0 -0 -0 0 -0 -0 0 -0 -0 0 -0 -0 0 -0 -0 0 -0 -0 0 -0 
0 95.5 0 -0 0 -0 -0 0 -0 -0 0 -0 1.4348 10.381 -12.965 -0 0 -0 -0 0 -0 -2.1431 -57.656 -16.404 -53.535 -38.395 -44.849 -0 0 -0 -0 0 -0 11.393 -54.461 34.281 133.34 -79.286 96.475 -0 0 -0 1.0284 -24.951 7.6176 1.0284 -24.951 7.6176 -0 0 -0 -0 0 -0 -0 0 -0 -0 0 -0 -0 0 -0 -0 0 -0 -0 0 -0 -0 0 -0 -0 0 -0 -0 0 -0 -0 0 -0 -0 0 -0 
0 95.5 0 -0 0 -0 -0 0 -0 -0 0 -0 1.402 10.283 -12.997 -0 0 -0 -0 0 -0 -1.8718 -57.673 -16.081 -53.826 -38.295 -45.131 -0 0 -0 -0 0 -0 10.59 -53.782 32.335 130.91 -78.874 93.757 -0 0 -0 0.76514 -25.696 7.4643 0.76514 -25.696 7.4643 -0 0 -0 -0 0 -0 -0 0 -0 -0 0 -0 -0 0 -0 -0 0 -0 -0 0 -0 -0 0 -0 -0 0 -0 -0 0 -0 -0 0 -0 -0 0 -0 
0 95.5 0 -0 0 -0 -0 0 -0 -0 0 -0 1.1748 9.8802 -12.791 -0 0 -0 -0 0 -0 -1.9237 -57.375 -16.169 -54.166 -38.114 -45.494 -0 0 -0 -0 0 -0 10.23 -53.135 31.01 130.58 -78.898 93.522 -0 0 -0 0.48984 -25.72 7.1562 0.48984 -25.72 7.1562 -0 0 -0 -0 0 -0 -0 0 -0 -0 0 -0 -0 0 -0 -0 0 -0 -0 0 -0 -0 0 -0 -0 0 -0 -0 0 -0 -0 0 -0 -0 0 -0 
0 95.5 0 -0 0 -0 -0 0 -0 -0 0 -0 1.0737 9.5142 -12.511 -0 0 -0 -0 0 -0 -2.2003 -57.046 -16.557 -54.572 -38.196 -45.914 -0 0 -0 -0 0 -0 10.263 -52.838 30.917 133.86 -79.277 97.743 -0 0 -0 0.20215 -25.34 6.7493 0.20215 -25.34 6.7493 -0 0 -0 -0 0 -0 -0 0 -0 -0 0 -0 -0 0 -0 -0 0 -0 -0 0 -0 -0 0 -0 -0 0 -0 -0 0 -0 -0 0 -0 -0 0 -0 
0 95.5 0 -0 0 -0 -0 0 -0 -0 0 -0 1.1244 9.6286 -12.111 -0 0 -0 -0 0 -0 -2.7673 -56.997 -17.485 -54.986 -38.673 -46.331 -0 0 -0 -0 0 -0 10.489 -53.223 31.359 138.12 -79.427 103.43 -0 0 -0 0.0067092 -25.041 6.2503 0.0067095 -25.041 6.2503 -0 0 -0 -0 0 -0 -0 0 -0 -0 0 -0 -0 0 -0 -0 0 -0 -0 0 -0 -0 0 -0 -0 0 -0 -0 0 -0 -0 0 -0 -0 0 -0 
0 95.5 0 -0 0 -0 -0 0 -0 -0 0 -0 1.0013 9.5608 -11.555 -0 0 -0 -0 0 -0 -3.487 -56.588 -18.671 -55.378 -39.127 -46.767 -0 0 -0 -0 0 -0 10.874 -53.334 31.847 142.3 -79.357 108.63 -0 0 -0 0.085349 -24.591 5.7171 0.085348 -24.591 5.7171 -0 0 -0 -0 0 -0 -0 0 -0 -0 0 -0 -0 0 -0 -0 0 -0 -0 0 -0 -0 0 -0 -0 0 -0 -0 0 -0 -0 0 -0 -0 0 -0 
